<svg width="39" height="39" viewBox="0 0 39 39" fill="none" xmlns="http://www.w3.org/2000/svg">
<path d="M23.0241 11.5446C21.9649 12.6038 21.98 14.3363 23.0579 15.4142C24.1357 16.4921 25.8682 16.5072 26.9275 15.4479L37.6877 4.68769C38.2669 5.7911 38.5996 7.04155 38.6111 8.36436L38.8059 30.7102C38.8443 35.1178 35.3024 38.6597 30.8948 38.6213L15.6176 38.4881L29.9739 24.1318C31.0331 23.0725 31.018 21.3401 29.9402 20.2622C28.8623 19.1843 27.1298 19.1692 26.0706 20.2285L7.90385 38.3952C3.795 38.031 0.535344 34.5667 0.498818 30.3763L0.496832 30.1482L14.8531 15.792C15.9124 14.7327 15.8973 13.0002 14.8194 11.9224C13.7415 10.8445 12.009 10.8294 10.9498 11.8886L0.429374 22.409L0.304046 8.03046C0.265628 3.62287 3.80754 0.0809583 8.21513 0.119376L30.5609 0.31415C31.6434 0.323585 32.6774 0.548083 33.622 0.946727L23.0241 11.5446Z" fill="#e63946"/>
</svg>
